<?xml version="1.0" encoding="UTF-8"?>
<svg width="1200pt" height="1200pt" version="1.1" viewBox="0 0 1200 1200" xmlns="http://www.w3.org/2000/svg">
 <g>
  <rect width="1200" height="1200" fill="#369"/>
  <path d="m879.62 335.5h-559.23c-25.043 0-45.344 20.297-45.344 45.344v438.31c0 25.043 20.297 45.344 45.344 45.344h559.23c25.043 0 45.344-20.297 45.344-45.344l-0.003907-438.31c0-25.043-20.297-45.344-45.34-45.344zm-52.902 30.23c12.523 0 22.672 10.148 22.672 22.672 0 12.523-10.148 22.672-22.672 22.672-12.523 0-22.672-10.148-22.672-22.672 0-12.523 10.152-22.672 22.672-22.672zm-90.684 0c12.523 0 22.672 10.148 22.672 22.672 0 12.523-10.148 22.672-22.672 22.672s-22.672-10.148-22.672-22.672c0-12.523 10.148-22.672 22.672-22.672zm-90.688 0c12.523 0 22.672 10.148 22.672 22.672 0 12.523-10.148 22.672-22.672 22.672s-22.672-10.148-22.672-22.672c0-12.523 10.152-22.672 22.672-22.672zm234.27 445.87c0 4.1719-3.3867 7.5586-7.5586 7.5586h-544.11c-4.1719 0-7.5586-3.3867-7.5586-7.5586v-362.74c0-4.1719 3.3867-7.5586 7.5586-7.5586h544.11c4.1719 0 7.5586 3.3867 7.5586 7.5586z" fill="#fff"/>
  <path d="m729.6 525.53-120.91-36.273c-5.668-1.6992-11.707-1.6992-17.375 0l-120.91 36.273c-12.777 3.832-21.535 15.605-21.535 28.949v73.652c0 38.586 21 74.113 54.812 92.703l81.762 44.973c9.0703 4.9883 20.062 4.9883 29.133 0l81.762-44.973c33.816-18.59 54.816-54.117 54.816-92.703v-73.652c0-13.344-8.7578-25.117-21.547-28.949zm-38.645 76.023-98.242 90.688c-8.9609 8.2617-22.832 7.9648-31.406-0.62891l-45.344-45.344c-21.184-21.176 10.852-53.27 32.059-32.059l27.371 27.371c1.4375 1.4375 3.7422 1.4805 5.2383 0.10547l79.57-73.449c22.016-20.301 52.797 12.949 30.754 33.316z" fill="#fff"/>
 </g>
</svg>
