<?xml version="1.0" encoding="UTF-8"?>
<svg width="1200pt" height="1200pt" version="1.1" viewBox="0 0 1200 1200" xmlns="http://www.w3.org/2000/svg">
 <g>
  <rect width="1200" height="1200" fill="#369"/>
  <path d="m638.36 365.41c0 24.742-16.711 44.797-37.32 44.797s-37.316-20.055-37.316-44.797 16.707-44.801 37.316-44.801 37.32 20.059 37.32 44.801" fill="#fff"/>
  <path d="m603.55 801.73c-109.41 0-166.64-32.676-166.64-64.961 0-23.062 16.316-52.5 94.078-61.75 5.9336-0.79297 11.297 3.5234 12 9.4531 0.71094 5.918-3.5234 11.289-9.4453 11.992-28.023 3.332-75.027 13.004-75.027 40.301 0 17.676 56.504 43.348 145.04 43.348s145.04-25.672 145.04-43.348c0-18.41-31.695-34.219-80.762-40.309-5.9258-0.73438-10.133-6.1289-9.3945-12.047 0.73438-5.9258 6.1367-10.148 12.055-9.3867 63.367 7.8438 99.707 30.355 99.707 61.742 0 32.289-57.246 64.965-166.64 64.965z" fill="#fff"/>
  <path d="m604.49 848.34c-112.29 0-233.15-33.961-233.15-108.52 0-53.812 80.477-87.465 160.24-96.941 5.9023-0.76953 11.297 3.5273 12 9.4531s-3.5273 11.297-9.4531 12c-92.68 11.02-141.18 46.316-141.18 75.488 0 43.188 72.66 86.914 211.55 86.914 107.26 0 218.2-32.512 218.2-86.914 0-31.309-51.992-69.434-151.36-81.754-5.918-0.73438-10.125-6.1289-9.3867-12.055 0.73438-5.918 6.1367-10.148 12.047-9.3867 101.86 12.629 170.31 54.094 170.31 103.19-0.019531 71.254-120.65 108.52-239.82 108.52z" fill="#fff"/>
  <path d="m603.95 897.03c-93.801 0-172.26-15.922-226.89-46.055-49.945-27.535-77.453-65.262-77.453-106.23 0-66.277 94.75-122.06 235.78-138.82 5.9414-0.67969 11.297 3.5273 12 9.4531 0.70312 5.9258-3.5273 11.297-9.4453 12-142.29 16.906-216.73 71.848-216.73 117.37 0 62.93 88.48 130.67 282.74 130.67 191.43 0 278.62-67.742 278.62-130.67 0-44.996-72.973-99.582-212.43-116.86-5.918-0.74219-10.125-6.1367-9.3867-12.055 0.73438-5.918 6.1367-10.117 12.047-9.3945 138.39 17.141 231.38 72.73 231.38 138.3-0.011719 75.809-92.836 152.29-300.23 152.29z" fill="#fff"/>
  <path d="m602.56 765.26c-11.02 0-107.64-0.98828-107.64-35.109 0-18.492 27.492-25.406 36.523-27.684 5.7969-1.4453 11.652 2.0625 13.113 7.8516 1.457 5.7812-2.0547 11.652-7.8438 13.105-9.7852 2.457-15.402 5.0273-18.281 6.7852 8.7227 5.4648 37.641 13.438 84.117 13.438 46.484 0 75.406-7.9883 84.117-13.445-3.2422-1.9961-9.9297-4.957-22.027-7.6797-5.8281-1.3086-9.4922-7.0898-8.1836-12.906 1.3242-5.8281 7.0898-9.4766 12.906-8.1758 27.469 6.168 40.809 15.559 40.809 28.703 0.015625 34.125-96.594 35.117-107.61 35.117z" fill="#fff"/>
  <path d="m551.34 492.51c4.6484 9.0234 1.4492 187.63 8.3672 223.05 5.3359 27.355 31.301 23.141 32.82-3.3789 1.1094-19.285 0.49219-87.082 3.2656-114.68 0.75-7.4805 3.7188-11.629 6.8633-11.039 2.5234 0.47656 4.9258 4.0664 5.3125 10.059 1.8047 28.074-1.4219 90.715 0.023438 115.67 1.5273 26.527 28.809 30.734 34.152 3.3789 6.9062-35.43 8.375-205.37 13.133-223.05 6.1211-22.738 13.324 49.105 10.324 80.402-2.1367 22.391 28.574 30.121 30.102-0.81641 1.7539-35.625-2.4648-82.828-10.926-107.92-11.402-33.832-59.77-39.094-83.855-39.078-22.988 0.023438-71.18 8.5625-80.848 46.703-6.5312 25.77-9.1445 64.652-3.8086 101.12 4.4805 30.605 28.219 22.383 25.938 1.6562-4.207-38.059-1.5391-102.79 9.1367-82.074z" fill="#fff"/>
 </g>
</svg>
