<?xml version="1.0" encoding="UTF-8"?>
<svg width="1200pt" height="1200pt" version="1.1" viewBox="0 0 1200 1200" xmlns="http://www.w3.org/2000/svg">
 <defs>
  <clipPath id="a">
   <path d="m222.14 223h755.71v754h-755.71z"/>
  </clipPath>
 </defs>
 <rect width="1200" height="1200" fill="#369"/>
 <g clip-path="url(#a)">
  <path d="m501.68 821.41 41.102 41.16-114.4 114.37-41.102-41.098zm-82.219-82.195 41.102 41.098-155.5 155.53-41.098-41.098zm466.64-516.12c24.27-0.027344 48.305 0.17578 71.121 9.0117 2.2695 1.0195 4.5078 2.4727 6.1641 4.1289 1.8594 1.832 3.2852 4.0977 4.332 6.3359 8.8359 22.844 9.2422 47.117 9.4453 71.531 0 107.31-57.551 211.31-137.92 294.96v-89.609c51.793-67.84 79.758-139.37 79.758-205.53 0-11.945-0.23438-22.41-1.25-31.652-9.4492-1.25-20.551-1.25-31.652-1.25-82.605 0-173.23 43.367-255.26 122.08-15 14.621-30.199 31.043-48.105 52.609l-17.234 20.984-27.352 0.20312h-97.43l-34.938 40.695 53.656 28.977 44.383 23.836-17.469 47.492c-2.2656 5.957-4.3008 11.715-6.1602 17.234l84.262 84.672c5.957-1.832 11.711-3.8672 17.469-5.9297l47.289-17.672 24.039 44.586 28.977 53.219 40.898-35.141-0.20703-96.383v-27.555l21.16-17.438c14.188-11.715 26.305-22.207 37.004-32.469v184.95l0.20312 7.207c0 5.3477-2.4414 10.668-6.7734 14.156l-91.266 78.508c-1.0195 0.63672-2.2695 1.4531-3.2852 2.0898-7.6172 4.3047-16.656 2.6758-22.41-3.1094-1.2227-1.2188-2.2383-2.6445-3.2852-4.5039l-52-96.004c-14.996 5.5781-29.383 10.086-43.977 14.008-6.5664 1.6289-13.574 0-18.281-4.7383l-117.37-117.77c-4.7109-4.7109-6.5703-11.512-5.1445-17.875 3.9219-14.594 8.8633-29.387 14.184-44.211l-96.383-52.406c-1.0195-0.60938-2.0625-1.2188-2.8789-2.0352-0.60937-0.23047-1.0469-0.60938-1.2188-0.8125-7.0078-6.9766-7.4141-18.109-1.25-25.492l78.508-91.672c3.0781-3.8945 7.6133-5.9883 12.352-6.5703 0.40625 0 0.8125 0 1.0156-0.23047l116.12 0.23047c16.652-19.969 33.918-39.676 52.609-57.578 83.855-80.543 188.05-138.3 295.54-138.07zm-548.84 433.92 41.098 41.129-114.4 114.38-41.098-41.098z" fill="#fff" fill-rule="evenodd"/>
 </g>
</svg>
